<svg width="136" height="65" viewBox="0 0 136 65" fill="none" xmlns="http://www.w3.org/2000/svg">
<path d="M82.966 21L114.754 37.5H51.1775L82.966 21Z" fill="#718FA7"/>
<path d="M99.0558 21L130.844 37.5H67.2673L99.0558 21Z" fill="#426A88"/>
<path d="M4.35547 8.5625H6.77734L17.2852 33.6016L27.8125 8.5625H30.2148L18.2031 37H16.3672L4.35547 8.5625ZM3.61328 8.5625H5.74219L5.99609 24.5781V37H3.61328V8.5625ZM28.8672 8.5625H30.9961V37H28.5938V24.5781L28.8672 8.5625ZM38.9648 8.5625H41.3867L51.8945 33.6016L62.4219 8.5625H64.8242L52.8125 37H50.9766L38.9648 8.5625ZM38.2227 8.5625H40.3516L40.6055 24.5781V37H38.2227V8.5625ZM63.4766 8.5625H65.6055V37H63.2031V24.5781L63.4766 8.5625Z" fill="#31576A"/>
<path d="M15.0078 49.0625V51.3945H5.94922V49.0625H15.0078ZM6.67578 41.9375V59H3.73438V41.9375H6.67578ZM17.2695 41.9375V59H14.3398V41.9375H17.2695ZM36.2989 50V50.9375C36.2989 52.2266 36.1309 53.3828 35.795 54.4062C35.4591 55.4297 34.9786 56.3008 34.3536 57.0195C33.7364 57.7383 32.9942 58.2891 32.127 58.6719C31.2598 59.0469 30.2989 59.2344 29.2442 59.2344C28.1973 59.2344 27.2403 59.0469 26.3731 58.6719C25.5138 58.2891 24.7677 57.7383 24.1348 57.0195C23.502 56.3008 23.0098 55.4297 22.6583 54.4062C22.3145 53.3828 22.1427 52.2266 22.1427 50.9375V50C22.1427 48.7109 22.3145 47.5586 22.6583 46.543C23.002 45.5195 23.4864 44.6484 24.1114 43.9297C24.7442 43.2031 25.4903 42.6523 26.3497 42.2773C27.2169 41.8945 28.1739 41.7031 29.2208 41.7031C30.2755 41.7031 31.2364 41.8945 32.1036 42.2773C32.9708 42.6523 33.7169 43.2031 34.3419 43.9297C34.9669 44.6484 35.4473 45.5195 35.7833 46.543C36.127 47.5586 36.2989 48.7109 36.2989 50ZM33.3575 50.9375V49.9766C33.3575 49.0234 33.2638 48.1836 33.0763 47.457C32.8966 46.7227 32.627 46.1094 32.2677 45.6172C31.9161 45.1172 31.4825 44.7422 30.9669 44.4922C30.4513 44.2344 29.8692 44.1055 29.2208 44.1055C28.5723 44.1055 27.9942 44.2344 27.4864 44.4922C26.9786 44.7422 26.545 45.1172 26.1856 45.6172C25.8341 46.1094 25.5645 46.7227 25.377 47.457C25.1895 48.1836 25.0958 49.0234 25.0958 49.9766V50.9375C25.0958 51.8906 25.1895 52.7344 25.377 53.4688C25.5645 54.2031 25.838 54.8242 26.1973 55.332C26.5645 55.832 27.002 56.2109 27.5098 56.4688C28.0177 56.7188 28.5958 56.8438 29.2442 56.8438C29.9005 56.8438 30.4825 56.7188 30.9903 56.4688C31.4981 56.2109 31.9278 55.832 32.2794 55.332C32.6309 54.8242 32.8966 54.2031 33.0763 53.4688C33.2638 52.7344 33.3575 51.8906 33.3575 50.9375ZM50.1369 54.6055C50.1369 54.2539 50.0822 53.9414 49.9728 53.668C49.8713 53.3945 49.6877 53.1445 49.422 52.918C49.1564 52.6914 48.7814 52.4727 48.297 52.2617C47.8205 52.043 47.2111 51.8203 46.4689 51.5938C45.6564 51.3438 44.9064 51.0664 44.2189 50.7617C43.5392 50.4492 42.9455 50.0898 42.4377 49.6836C41.9298 49.2695 41.5353 48.7969 41.2541 48.2656C40.9728 47.7266 40.8322 47.1055 40.8322 46.4023C40.8322 45.707 40.9767 45.0742 41.2658 44.5039C41.5627 43.9336 41.9806 43.4414 42.5197 43.0273C43.0666 42.6055 43.7111 42.2812 44.4533 42.0547C45.1955 41.8203 46.0158 41.7031 46.9142 41.7031C48.1798 41.7031 49.2697 41.9375 50.1838 42.4062C51.1056 42.875 51.8127 43.5039 52.3048 44.293C52.8048 45.082 53.0548 45.9531 53.0548 46.9062H50.1369C50.1369 46.3438 50.0158 45.8477 49.7736 45.418C49.5392 44.9805 49.1798 44.6367 48.6955 44.3867C48.2189 44.1367 47.6134 44.0117 46.8791 44.0117C46.1838 44.0117 45.6056 44.1172 45.1447 44.3281C44.6838 44.5391 44.34 44.8242 44.1134 45.1836C43.8869 45.543 43.7736 45.9492 43.7736 46.4023C43.7736 46.7227 43.8478 47.0156 43.9963 47.2812C44.1447 47.5391 44.3713 47.7812 44.6759 48.0078C44.9806 48.2266 45.3634 48.4336 45.8244 48.6289C46.2853 48.8242 46.8283 49.0117 47.4533 49.1914C48.3986 49.4727 49.2228 49.7852 49.9259 50.1289C50.6291 50.4648 51.215 50.8477 51.6838 51.2773C52.1525 51.707 52.5041 52.1953 52.7384 52.7422C52.9728 53.2812 53.09 53.8945 53.09 54.582C53.09 55.3008 52.9455 55.9492 52.6564 56.5273C52.3673 57.0977 51.9533 57.5859 51.4142 57.9922C50.883 58.3906 50.2423 58.6992 49.4923 58.918C48.7502 59.1289 47.922 59.2344 47.008 59.2344C46.1877 59.2344 45.3791 59.125 44.5822 58.9062C43.7931 58.6875 43.0744 58.3555 42.4259 57.9102C41.7775 57.457 41.2619 56.8945 40.8791 56.2227C40.4963 55.543 40.3048 54.75 40.3048 53.8438H43.2463C43.2463 54.3984 43.34 54.8711 43.5275 55.2617C43.7228 55.6523 43.9923 55.9727 44.3361 56.2227C44.6798 56.4648 45.0783 56.6445 45.5314 56.7617C45.9923 56.8789 46.4845 56.9375 47.008 56.9375C47.6955 56.9375 48.2697 56.8398 48.7306 56.6445C49.1994 56.4492 49.5509 56.1758 49.7853 55.8242C50.0197 55.4727 50.1369 55.0664 50.1369 54.6055ZM64.092 52.6367H59.6506V50.3047H64.092C64.8655 50.3047 65.4905 50.1797 65.967 49.9297C66.4436 49.6797 66.7912 49.3359 67.01 48.8984C67.2366 48.4531 67.3498 47.9453 67.3498 47.375C67.3498 46.8359 67.2366 46.332 67.01 45.8633C66.7912 45.3867 66.4436 45.0039 65.967 44.7148C65.4905 44.4258 64.8655 44.2812 64.092 44.2812H60.553V59H57.6116V41.9375H64.092C65.4123 41.9375 66.5334 42.1719 67.4553 42.6406C68.385 43.1016 69.092 43.7422 69.5764 44.5625C70.0608 45.375 70.303 46.3047 70.303 47.3516C70.303 48.4531 70.0608 49.3984 69.5764 50.1875C69.092 50.9766 68.385 51.582 67.4553 52.0039C66.5334 52.4258 65.4123 52.6367 64.092 52.6367ZM78.0003 41.9375V59H75.0589V41.9375H78.0003ZM90.2445 41.9375V59H87.3266V41.9375H90.2445ZM95.6 41.9375V44.2812H82.018V41.9375H95.6ZM105.29 44.2109L100.192 59H97.1098L103.532 41.9375H105.5L105.29 44.2109ZM109.555 59L104.446 44.2109L104.223 41.9375H106.204L112.649 59H109.555ZM109.309 52.6719V55.0039H100.028V52.6719H109.309ZM127.167 56.668V59H118.6V56.668H127.167ZM119.42 41.9375V59H116.479V41.9375H119.42Z" fill="#788A96"/>
</svg>
